<?xml version="1.0" encoding="UTF-8"?>
<!DOCTYPE svg PUBLIC "-//W3C//DTD SVG 1.1//EN" "http://www.w3.org/Graphics/SVG/1.1/DTD/svg11.dtd">
<!-- Creator: CorelDRAW 2017 -->
<svg xmlns="http://www.w3.org/2000/svg" xml:space="preserve" width="160mm" height="50mm" version="1.1" style="shape-rendering:geometricPrecision; text-rendering:geometricPrecision; image-rendering:optimizeQuality; fill-rule:evenodd; clip-rule:evenodd"
viewBox="0 0 16000 5000"
 xmlns:xlink="http://www.w3.org/1999/xlink">
 <defs>
  <style type="text/css">
   <![CDATA[
    .fil3 {fill:#0262DD}
    .fil1 {fill:#6BBA00}
    .fil2 {fill:#FEB205}
    .fil0 {fill:#FF322D}
   ]]>
  </style>
 </defs>
 <g id="Capa_x0020_1">
  <metadata id="CorelCorpID_0Corel-Layer"/>
  <path class="fil0" d="M1321 1887c354,-148 835,-124 1029,154 203,291 140,768 -37,1038 -195,296 -706,308 -906,-2 -164,-254 -122,-841 -86,-1190zm1758 1053c31,-61 43,-592 48,-716l-41 -132c-28,-126 -87,-245 -160,-351 -431,-630 -1374,-317 -1565,-343l53 -800 -667 1c-5,1064 -85,2086 -141,3127l624 1 4 -349c40,13 124,144 175,192 58,54 140,113 236,151 195,78 480,84 686,25 391,-111 595,-378 709,-724l38 -81z"/>
  <path class="fil1" d="M9007 1882c404,-95 814,-157 1029,164 210,312 133,770 -38,1031 -191,293 -694,322 -904,3 -175,-267 -124,-825 -88,-1197zm1735 1139c-49,-131 -69,-321 -66,-496 2,-120 14,-138 33,-239 20,-105 43,-110 47,-240 -63,-300 -320,-545 -580,-635 -391,-135 -735,-35 -1124,-13l49 -797 -668 -2c-2,531 -33,1040 -50,1559 -17,524 -71,1040 -89,1570l621 -2 8 -352c50,28 97,130 165,190 56,50 139,112 221,146 459,192 1034,48 1308,-437 19,-35 101,-232 125,-251z"/>
  <path class="fil2" d="M5381 1486c35,139 114,281 122,406 41,38 62,134 80,184l472 1365c94,269 189,378 -88,741 -124,163 -166,178 -335,187 -92,5 -165,7 -248,-17 -28,-8 -66,-19 -99,-30 -5,-2 -10,-3 -14,-5l-91 -23c-13,160 47,339 63,491 337,38 856,169 1191,-229 187,-222 363,-717 502,-1023l468 -1054c68,-145 449,-954 454,-1079l-594 -1c-70,27 -237,558 -281,663l-453 1117c-26,-42 -96,-362 -120,-442 -49,-162 -375,-1285 -412,-1334l-614 -4 -3 87z"/>
  <path class="fil0" d="M12573 2745c-195,925 -1433,721 -1217,-367 70,-355 341,-650 792,-549 376,85 517,481 425,915zm-1816 -700c-4,130 -27,136 -47,240 -19,101 -31,118 -33,239 -3,175 17,365 66,496 318,1089 2459,1105 2508,-459 44,-1391 -1645,-1499 -2271,-818 -183,199 -164,330 -222,301z"/>
  <path class="fil3" d="M3128 2224c-5,124 -17,655 -48,716 12,415 60,744 643,829 228,33 466,12 671,-57 265,-88 326,-266 410,-330l2 342 621 0 77 -1834c-8,-125 -88,-266 -122,-406 -49,-114 -26,-90 -191,-89 -100,0 -203,-12 -302,2 -47,725 111,1819 -635,1859 -852,46 -414,-1050 -445,-1865l-648 3 -33 828z"/>
  <path class="fil3" d="M13858 2507c-56,147 -891,1082 -951,1219l707 1c67,-18 494,-650 609,-711l474 704 749 7c-28,-83 -506,-760 -620,-926 -62,-91 -167,-232 -198,-312 57,-120 804,-1006 850,-1091 -139,-10 -291,0 -433,-1 -425,-3 -200,-44 -752,591 -63,-33 -357,-485 -422,-590l-749 -3c17,82 616,884 736,1112z"/>
 </g>
</svg>
